HIERARCHY
ROOT Hips
{
	OFFSET 0.000000 0.000000 0.000000
	CHANNELS 6 Xposition Yposition Zposition Zrotation Yrotation Xrotation 
	JOINT LHipJoint
	{
		OFFSET 0.000000 0.000000 0.000000
		CHANNELS 3 Zrotation Yrotation Xrotation
		JOINT LeftUpLeg
		{
			OFFSET 1.363060 -1.794630 0.839290
			CHANNELS 3 Zrotation Yrotation Xrotation
			JOINT LeftLeg
			{
				OFFSET 2.448110 -6.726130 0.000000
				CHANNELS 3 Zrotation Yrotation Xrotation
				JOINT LeftFoot
				{
					OFFSET 2.562200 -7.039590 0.000000
					CHANNELS 3 Zrotation Yrotation Xrotation
					JOINT LeftToeBase
					{
						OFFSET 0.157640 -0.433110 2.322550
						CHANNELS 3 Zrotation Yrotation Xrotation
						End Site
						{
							OFFSET 0.000000 0.000000 0.000000
						}
					}
				}
			}
		}
	}
	JOINT RHipJoint
	{
		OFFSET 0.000000 0.000000 0.000000
		CHANNELS 3 Zrotation Yrotation Xrotation
		JOINT RightUpLeg
		{
			OFFSET -1.305520 -1.794630 0.839290
			CHANNELS 3 Zrotation Yrotation Xrotation
			JOINT RightLeg
			{
				OFFSET -2.542530 -6.985550 0.000000
				CHANNELS 3 Zrotation Yrotation Xrotation
				JOINT RightFoot
				{
					OFFSET -2.568260 -7.056230 0.000000
					CHANNELS 3 Zrotation Yrotation Xrotation
					JOINT RightToeBase
					{
						OFFSET -0.164730 -0.452590 2.363150
						CHANNELS 3 Zrotation Yrotation Xrotation
						End Site
						{
							OFFSET 0.000000 0.000000 0.000000
						}
					}
				}
			}
		}
	}
}
MOTION
Frames: 17
Frame Time: 0.008333
2.597913 17.321918 0.378609 -175.961213 -46.004070 -174.349929 -13.086890 4.247845 -2.625973 -3.219713 44.945724 -10.263927 -3.283734 -0.556636 1.338260 2.585798 21.446689 1.745085 3.398700 0.000000 -43.326500 7.926529 -2.247064 8.678298 0.220896 18.837245 -16.711003 3.400739 1.230776 1.583440 1.704067 8.842806 9.587163 1.731600 -0.000000 -73.069300
2.602106 17.322013 0.385309 -176.018008 -46.219896 -174.404779 -13.093449 4.226542 -2.589026 -3.172008 44.523292 -10.167637 -3.224548 -0.544565 1.528583 2.634306 21.705005 1.590525 3.398199 -0.000000 -43.128600 7.932757 -2.232117 8.565212 0.280462 18.561110 -16.504288 3.397693 1.227863 1.558966 1.706275 8.900053 9.600068 1.749900 0.000000 -73.069199
2.605629 17.322136 0.391557 -176.077342 -46.491981 -174.450135 -13.099949 4.213092 -2.552586 -3.134535 44.141058 -10.080542 -3.177191 -0.533587 1.666299 2.666407 21.854507 1.470277 3.387600 0.000000 -42.982900 7.941181 -2.216591 8.456656 0.328402 18.291218 -16.318491 3.388157 1.223449 1.579295 1.701071 8.887666 9.577988 1.744000 0.000000 -73.040500
2.608511 17.322094 0.396934 -176.138860 -46.800269 -174.478888 -13.105117 4.206044 -2.521452 -3.109998 43.822745 -10.010447 -3.144313 -0.524070 1.755131 2.680888 21.891965 1.383968 3.366401 -0.000000 -42.900100 7.950936 -2.201844 8.361625 0.356421 18.059528 -16.174588 3.370687 1.215670 1.657698 1.687262 8.797038 9.513918 1.711100 0.000000 -72.980899
2.610894 17.321696 0.401154 -176.202856 -47.127104 -174.486818 -13.108081 4.203352 -2.499526 -3.099265 43.583596 -9.962501 -3.127102 -0.516246 1.801780 2.677877 21.821132 1.328094 3.334400 0.000000 -42.877099 7.961181 -2.188767 8.286355 0.359853 17.890490 -16.088801 3.344242 1.202720 1.807013 1.664080 8.625517 9.401697 1.650700 -0.000000 -72.888800
2.612890 17.320825 0.404056 -176.267152 -47.458053 -174.472325 -13.108497 4.202701 -2.489311 -3.101018 43.427638 -9.937682 -3.124911 -0.510308 1.813925 2.659212 21.655424 1.297798 3.292600 0.000001 -42.911800 7.970818 -2.178047 8.235069 0.336751 17.804337 -16.069094 3.308334 1.183539 2.032387 1.630701 8.370656 9.238904 1.562799 0.000000 -72.763300
2.614809 17.319379 0.405620 -176.332293 -47.783974 -174.437059 -13.105946 4.201742 -2.491803 -3.112987 43.348684 -9.933904 -3.135645 -0.506275 1.800231 2.627793 21.413627 1.286765 3.242599 0.000000 -42.992699 7.979436 -2.169712 8.208310 0.287947 17.808939 -16.116585 3.262750 1.157237 2.336988 1.586852 8.037230 9.025103 1.449899 0.000000 -72.604501
2.616821 17.317368 0.405873 -176.395449 -48.100431 -174.384265 -13.100222 4.198318 -2.506578 -3.131393 43.331313 -9.946770 -3.156040 -0.504020 1.769555 2.587512 21.119802 1.288228 3.186800 0.000000 -43.106700 7.986429 -2.163545 8.205513 0.215654 17.910210 -16.224489 3.207840 1.124043 2.713010 1.531931 7.626021 8.765024 1.314200 -0.000000 -72.411200
2.619136 17.314851 0.405010 -176.455232 -48.407469 -174.319730 -13.091358 4.190983 -2.531318 -3.152676 43.352232 -9.968319 -3.181793 -0.503499 1.728075 2.542726 20.800689 1.296013 3.128600 0.000001 -43.235300 7.992199 -2.158725 8.221432 0.125665 18.093632 -16.381881 3.144639 1.084281 3.153120 1.466921 7.153070 8.465219 1.162201 -0.000000 -72.188200
2.621908 17.311965 0.403278 -176.508847 -48.708474 -174.251398 -13.079526 4.178469 -2.563667 -3.169993 43.387599 -9.990365 -3.208732 -0.504164 1.683361 2.497392 20.479884 1.304136 3.070400 0.000000 -43.363099 7.996665 -2.154207 8.250694 0.025199 18.346797 -16.566472 3.075193 1.039978 3.632197 1.392514 6.626748 8.139828 0.998500 0.000000 -71.945001
2.625360 17.308864 0.400725 -176.559622 -49.008320 -174.179833 -13.064172 4.161056 -2.598140 -3.187481 43.406239 -10.008198 -3.232247 -0.506276 1.636415 2.456033 20.185656 1.309189 3.017200 0.000000 -43.472700 8.001286 -2.149106 8.288029 -0.083267 18.649951 -16.773808 2.999690 0.990975 4.152416 1.309835 6.062958 7.790301 0.828500 0.000000 -71.663500
2.629322 17.305760 0.397829 -176.601054 -49.313633 -174.118270 -13.046824 4.138566 -2.632349 -3.193125 43.390337 -10.011143 -3.249154 -0.508786 1.593552 2.420809 19.930195 1.307799 2.970000 -0.000000 -43.555000 8.005851 -2.142203 8.323859 -0.185419 18.970677 -16.965803 2.923192 0.941828 4.664389 1.222163 5.481959 7.443166 0.659700 -0.000000 -71.383800
2.633801 17.302827 0.394562 -176.637527 -49.628849 -174.062929 -13.027130 4.112200 -2.660873 -3.194548 43.317677 -10.000788 -3.256777 -0.511908 1.553733 2.394416 19.730420 1.299263 2.932000 0.000000 -43.601000 8.011501 -2.133161 8.355147 -0.281019 19.293088 -17.142272 2.845970 0.892722 5.169940 1.130864 4.895340 7.098535 0.494900 -0.000000 -71.081700
2.638550 17.300285 0.391260 -176.666512 -49.958510 -174.021364 -13.006557 4.083173 -2.680806 -3.186280 43.179991 -9.972342 -3.253845 -0.514931 1.519557 2.377321 19.588569 1.283713 2.903600 0.000000 -43.610000 8.018653 -2.121624 8.373632 -0.358103 19.579696 -17.276375 2.772775 0.847486 5.630588 1.040576 4.329652 6.776727 0.341400 -0.000000 -70.792700
2.643432 17.298235 0.387928 -176.690079 -50.304005 -173.992079 -12.985481 4.052722 -2.689345 -3.172096 42.973737 -9.930495 -3.240380 -0.517623 1.491600 2.369469 19.503786 1.262326 2.885100 -0.000000 -43.584900 8.027542 -2.107936 8.377415 -0.414138 19.815036 -17.362637 2.705512 0.807744 6.032288 0.953808 3.796952 6.484419 0.201300 0.000000 -70.516199
2.648103 17.296794 0.384604 -176.708406 -50.665233 -173.973063 -12.964659 4.022442 -2.684593 -3.155376 42.703215 -9.880027 -3.217514 -0.519879 1.469892 2.369748 19.468956 1.237734 2.875700 0.000000 -43.530799 8.038540 -2.093012 8.364329 -0.446253 19.978396 -17.397253 2.646374 0.775056 6.361936 0.873998 3.315370 6.228261 0.078200 -0.000001 -70.261300
2.652361 17.295996 0.381307 -176.723364 -51.040268 -173.962664 -12.944573 3.993409 -2.666209 -3.138494 42.379711 -9.827032 -3.187265 -0.521577 1.454638 2.376240 19.471896 1.212524 2.873900 -0.000000 -43.460100 8.051687 -2.077808 8.334146 -0.453325 20.057259 -17.379490 2.597082 0.750627 6.608504 0.803934 2.897877 6.013216 -0.026100 0.000000 -70.037901
